<svg width="1418" height="1985" viewBox="0 0 1418 1985" fill="none" xmlns="http://www.w3.org/2000/svg">
<style>
	#end {
		transform-box: fill-box;
		transform-origin: 50% 50%;
		visibility: hidden;
	}

	.start {
		transform-box: fill-box;
		transform-origin: 50% 50%;
	}
</style>
<rect width="1418" height="1985" fill="#F5F5F5"/>
<g id="Frame 1">
<path id="end" d="M750.5 964.5C822 1046.5 1312.9 1137.5 1232.5 1322C1137.5 1540 614.5 1766.5 273.5 1375C-87 961.111 248 460 547.501 385C547.501 385 679 882.5 750.5 964.5Z" stroke="#F3923C" stroke-width="6"/>
<path class="start" d="M667.171 905.06C755.172 905.06 1078.45 801.56 1106.67 905.06C1117.17 943.56 1048.76 1075.27 667.171 1089.56C360.173 1101.06 83.172 981.56 255.673 853.56C255.673 853.56 579.17 905.06 667.171 905.06Z" stroke="#F3923C" stroke-width="6"/>
<path class="start" d="M667.171 905.06C755.172 905.06 1078.45 801.56 1106.67 905.06C1117.17 943.56 1048.76 1075.27 667.171 1089.56C360.173 1101.06 83.172 981.56 255.673 853.56C255.673 853.56 579.17 905.06 667.171 905.06Z" stroke="#F3923C" stroke-width="6"/>
<path class="start" d="M667.171 905.06C755.172 905.06 1078.45 801.56 1106.67 905.06C1117.17 943.56 1048.76 1075.27 667.171 1089.56C360.173 1101.06 83.172 981.56 255.673 853.56C255.673 853.56 579.17 905.06 667.171 905.06Z" stroke="#F3923C" stroke-width="6"/>
<path class="start" d="M667.171 905.06C755.172 905.06 1078.45 801.56 1106.67 905.06C1117.17 943.56 1048.76 1075.27 667.171 1089.56C360.173 1101.06 83.172 981.56 255.673 853.56C255.673 853.56 579.17 905.06 667.171 905.06Z" stroke="#F3923C" stroke-width="6"/>
<path class="start" d="M667.171 905.06C755.172 905.06 1078.45 801.56 1106.67 905.06C1117.17 943.56 1048.76 1075.27 667.171 1089.56C360.173 1101.06 83.172 981.56 255.673 853.56C255.673 853.56 579.17 905.06 667.171 905.06Z" stroke="#F3923C" stroke-width="6"/>
<path class="start" d="M667.171 905.06C755.172 905.06 1078.45 801.56 1106.67 905.06C1117.17 943.56 1048.76 1075.27 667.171 1089.56C360.173 1101.06 83.172 981.56 255.673 853.56C255.673 853.56 579.17 905.06 667.171 905.06Z" stroke="#F3923C" stroke-width="6"/>
<path class="start" d="M667.171 905.06C755.172 905.06 1078.45 801.56 1106.67 905.06C1117.17 943.56 1048.76 1075.27 667.171 1089.56C360.173 1101.06 83.172 981.56 255.673 853.56C255.673 853.56 579.17 905.06 667.171 905.06Z" stroke="#F3923C" stroke-width="6"/>
<path class="start" d="M667.171 905.06C755.172 905.06 1078.45 801.56 1106.67 905.06C1117.17 943.56 1048.76 1075.27 667.171 1089.56C360.173 1101.06 83.172 981.56 255.673 853.56C255.673 853.56 579.17 905.06 667.171 905.06Z" stroke="#F3923C" stroke-width="6"/>
<path class="start" d="M667.171 905.06C755.172 905.06 1078.45 801.56 1106.67 905.06C1117.17 943.56 1048.76 1075.27 667.171 1089.56C360.173 1101.06 83.172 981.56 255.673 853.56C255.673 853.56 579.17 905.06 667.171 905.06Z" stroke="#F3923C" stroke-width="6"/>
<path class="start" d="M667.171 905.06C755.172 905.06 1078.45 801.56 1106.67 905.06C1117.17 943.56 1048.76 1075.27 667.171 1089.56C360.173 1101.06 83.172 981.56 255.673 853.56C255.673 853.56 579.17 905.06 667.171 905.06Z" stroke="#F3923C" stroke-width="6"/>
<path class="start" d="M667.171 905.06C755.172 905.06 1078.45 801.56 1106.67 905.06C1117.17 943.56 1048.76 1075.27 667.171 1089.56C360.173 1101.06 83.172 981.56 255.673 853.56C255.673 853.56 579.17 905.06 667.171 905.06Z" stroke="#F3923C" stroke-width="6"/>
<path class="start" d="M667.171 905.06C755.172 905.06 1078.45 801.56 1106.67 905.06C1117.17 943.56 1048.76 1075.27 667.171 1089.56C360.173 1101.06 83.172 981.56 255.673 853.56C255.673 853.56 579.17 905.06 667.171 905.06Z" stroke="#F3923C" stroke-width="6"/>
</g>
</svg>
