<svg width="1418" height="1985" viewBox="0 0 1418 1985" fill="none" xmlns="http://www.w3.org/2000/svg">
<rect width="1418" height="1985" fill="#F5F5F5"/>
<g id="Frame 1">
<path id="end" d="M719.23 909.394V909.395C731.951 947.356 760.238 978.592 796.669 995.078L796.672 995.079L1150.57 1154.78V1154.78C1193.25 1174.05 1223.32 1211.4 1232.95 1257.31V1257.32C1242.49 1302.64 1230.3 1348.33 1199.44 1382.63L1199.44 1382.63C1082.11 1513.2 914.289 1588.1 739.1 1588.1C574.871 1588.1 419.804 1523.47 302.367 1406.03C184.931 1288.6 120.3 1133.53 120.3 969.301C120.3 704.021 291.227 468.016 542.228 382.572L719.23 909.394Z" stroke="#65B32E" stroke-width="5"/>
<path id="start" d="M644.558 529.187C661.709 518.786 680.28 516.554 699.998 523.808C719.635 531.033 740.594 547.741 762.342 575.655L698.559 930.918L698.557 930.934L698.553 930.95C693.797 959.639 691.992 1024.27 709.071 1094.09C717.605 1128.98 725.283 1147.29 731.658 1166.11C738.008 1184.86 743.186 1204.42 746.877 1242.24C751.627 1290.93 754.685 1315.07 746.926 1349.45L746.926 1349.45C744.977 1358.1 743.654 1365.35 742.438 1371.63C741.218 1377.94 740.113 1383.23 738.59 1388.11C735.588 1397.73 730.921 1405.92 720.223 1416.74C714.744 1422.28 708.869 1424.89 702.768 1425.38C696.606 1425.87 689.989 1424.21 683.077 1420.81C669.201 1413.98 654.747 1400.43 641.549 1385.16C628.394 1369.94 616.673 1353.21 608.231 1340.28C604.013 1333.81 600.62 1328.3 598.283 1324.41C597.115 1322.47 596.211 1320.93 595.6 1319.88C595.295 1319.35 595.064 1318.95 594.909 1318.68C594.868 1318.61 594.833 1318.54 594.803 1318.49C594.781 1318.42 594.756 1318.34 594.726 1318.25C594.623 1317.93 594.469 1317.44 594.269 1316.8C593.867 1315.53 593.278 1313.65 592.523 1311.21C591.013 1306.32 588.845 1299.22 586.214 1290.35C580.951 1272.6 573.837 1247.74 566.431 1219.36C551.608 1162.55 535.655 1091.72 530.991 1035.29C519.604 897.509 530.977 809.891 561.929 682.591C571.377 643.731 583.363 610.598 597.359 584.545C611.37 558.466 627.303 539.651 644.558 529.187Z" stroke="#65B32E" stroke-width="5"/>
</g>
</svg>
